<svg id="Layer_1" data-name="Layer 1" xmlns="http://www.w3.org/2000/svg" width="15" height="15" viewBox="0 0 15 15">
  <defs>
    <style>
      .cls-1 {
        fill: #fff;
        stroke: #000;
        stroke-miterlimit: 10;
        stroke-width: 0.25px;
      }

      .cls-2 {
        fill: none;
      }
    </style>
  </defs>
  <title>Artboard 1</title>
  <g>
    <g id="etemQk248">
      <path d="M9.22,13.73a5.82,5.82,0,0,1-4.33-.26,4.68,4.68,0,0,1-1.93-3l-.08-.35A1.15,1.15,0,0,1,3.7,8.72l.11,0,0,.11c0,.11.27,1,.29,1.12v0s0,0,0,0S2.37,3,2.36,2.91a1,1,0,0,1,.11-.81,1.14,1.14,0,0,1,.7-.53,1.08,1.08,0,0,1,1.32.66v0c.07.33.89,3.51,1.09,4.27l0,.19s.09,0,.08,0,0,0,0,0a1.11,1.11,0,0,1,.82-1.32h0a1.11,1.11,0,0,1,1.34.78L8,6.45c0,.16.07.31.08.34s.08,0,.07,0v0a1,1,0,0,1,.84-1.2H9a1.12,1.12,0,0,1,1.34.78l.09.35a2.79,2.79,0,0,1,.08.35h0l0,0V6.93a.77.77,0,0,1,.1-.6,1.2,1.2,0,0,1,.74-.54h0a1.14,1.14,0,0,1,.83.12,1,1,0,0,1,.51.67l.22.84c.1.4.21.8.23.88a4.24,4.24,0,0,1-.31,3.22,5.14,5.14,0,0,1-3.34,2.14Zm-6-3.36A4.31,4.31,0,0,0,5,13.25c1,.61,2.48.65,4.45.16a4.9,4.9,0,0,0,3.19-2,4,4,0,0,0,.28-3c0-.09-.13-.48-.23-.88l-.22-.84a.82.82,0,0,0-.39-.52A.91.91,0,0,0,11.42,6a1,1,0,0,0-.59.43.6.6,0,0,0-.07.41l0,.06a.28.28,0,0,1,0,.2.3.3,0,0,1-.19.14.29.29,0,0,1-.34-.21l-.09-.34c0-.16-.07-.31-.08-.35a.87.87,0,0,0-1-.6H9a.81.81,0,0,0-.66.9v0a.27.27,0,0,1-.2.34.28.28,0,0,1-.35-.2l-.09-.34c0-.15-.07-.3-.08-.34a.86.86,0,0,0-1-.6h0a.87.87,0,0,0-.64,1v0a.29.29,0,0,1-.2.37.28.28,0,0,1-.35-.2l0-.19c-.19-.75-1-3.94-1.09-4.27a.84.84,0,0,0-1-.51h0a.86.86,0,0,0-.55.4.82.82,0,0,0-.08.63c.07.28,1.76,6.87,1.79,7a.25.25,0,0,1-.18.33A.25.25,0,0,1,3.9,10c0-.1-.18-.7-.25-1a.9.9,0,0,0-.53,1Z"/>
      <path d="M9.37,14.44c-2.19.52-3.86.37-5.11-.44h0a6.11,6.11,0,0,1-2.13-3.41c0-.11-.06-.24-.1-.37a2,2,0,0,1,.81-2c-.09-.37-.37-1.44-.65-2.52s-.6-2.34-.67-2.6a1.87,1.87,0,0,1,.22-1.44A1.94,1.94,0,0,1,2.92.76H3A1.88,1.88,0,0,1,5.23,2V2c0,.08.09.35.18.72s.25.94.38,1.48c0,.1,0,.2.08.29l0,.13.35-.12A2,2,0,0,1,8.1,5a2.24,2.24,0,0,1,.65-.28,2,2,0,0,1,1.81.51A2.34,2.34,0,0,1,11.12,5h0a1.93,1.93,0,0,1,2.31,1.36c0,.09.12.48.22.87s.2.77.23.85a5.17,5.17,0,0,1-.2,3.44,5.65,5.65,0,0,1-4,2.9Z"/>
    </g>
    <g>
      <g>
        <path class="cls-1" d="M9.22,13.73a5.82,5.82,0,0,1-4.33-.26,4.68,4.68,0,0,1-1.93-3l-.08-.35A1.15,1.15,0,0,1,3.7,8.72l.11,0,0,.11c0,.11.27,1,.29,1.12v0s0,0,0,0S2.37,3,2.36,2.91a1,1,0,0,1,.11-.81,1.14,1.14,0,0,1,.7-.53,1.08,1.08,0,0,1,1.32.66v0c.07.33.89,3.51,1.09,4.27l0,.19s.09,0,.08,0,0,0,0,0a1.11,1.11,0,0,1,.82-1.32h0a1.11,1.11,0,0,1,1.34.78L8,6.45c0,.16.07.31.08.34s.08,0,.07,0v0a1,1,0,0,1,.84-1.2H9a1.12,1.12,0,0,1,1.34.78l.09.35a2.79,2.79,0,0,1,.08.35h0l0,0V6.93a.77.77,0,0,1,.1-.6,1.2,1.2,0,0,1,.74-.54h0a1.14,1.14,0,0,1,.83.12,1,1,0,0,1,.51.67l.22.84c.1.4.21.8.23.88a4.24,4.24,0,0,1-.31,3.22,5.14,5.14,0,0,1-3.34,2.14Z"/>
        <path class="cls-2" d="M3.2,10.37A4.31,4.31,0,0,0,5,13.25c1,.61,2.48.65,4.45.16a4.9,4.9,0,0,0,3.19-2,4,4,0,0,0,.28-3c0-.09-.13-.48-.23-.88l-.22-.84a.82.82,0,0,0-.39-.52A.91.91,0,0,0,11.42,6a1,1,0,0,0-.59.43.6.6,0,0,0-.07.41l0,.06a.28.28,0,0,1,0,.2.3.3,0,0,1-.19.14.29.29,0,0,1-.34-.21l-.09-.34c0-.16-.07-.31-.08-.35a.87.87,0,0,0-1-.6H9a.81.81,0,0,0-.66.9v0a.27.27,0,0,1-.2.34.28.28,0,0,1-.35-.2l-.09-.34c0-.15-.07-.3-.08-.34a.86.86,0,0,0-1-.6h0a.87.87,0,0,0-.64,1v0a.29.29,0,0,1-.2.37.28.28,0,0,1-.35-.2l0-.19c-.19-.75-1-3.94-1.09-4.27a.84.84,0,0,0-1-.51h0a.86.86,0,0,0-.55.4.82.82,0,0,0-.08.63c.07.28,1.76,6.87,1.79,7a.25.25,0,0,1-.18.33A.25.25,0,0,1,3.9,10c0-.1-.18-.7-.25-1a.9.9,0,0,0-.53,1Z"/>
      </g>
      <g>
        <path class="cls-2" d="M9.41,14.49c-2.19.52-3.86.37-5.11-.43h0a6,6,0,0,1-2.12-3.41,3.29,3.29,0,0,1-.1-.37,1.93,1.93,0,0,1,.8-2c-.09-.37-.37-1.44-.65-2.52s-.6-2.34-.67-2.6a1.87,1.87,0,0,1,.22-1.44A2,2,0,0,1,3,.81H3A1.87,1.87,0,0,1,5.27,2v0l.19.72c.1.41.24.94.37,1.48,0,.1,0,.2.08.29l0,.13.35-.12A2,2,0,0,1,8.14,5a2.18,2.18,0,0,1,.66-.28,1.94,1.94,0,0,1,1.8.51A2.41,2.41,0,0,1,11.17,5h0a1.92,1.92,0,0,1,2.3,1.36c0,.09.12.48.22.87s.21.77.23.85a5.17,5.17,0,0,1-.2,3.44,5.63,5.63,0,0,1-4,2.9Z"/>
        <path class="cls-2" d="M4.44,13.85c1.25.8,3,.91,5.22.32a5.39,5.39,0,0,0,3.88-2.75,5,5,0,0,0,.18-3.27c0-.09-.12-.47-.23-.86s-.2-.77-.22-.86a1.68,1.68,0,0,0-2-1.19h0a2.18,2.18,0,0,0-.58.27l-.09.06-.07-.08A1.69,1.69,0,0,0,8.8,5a1.92,1.92,0,0,0-.61.28l-.09.06L8,5.27A1.73,1.73,0,0,0,6.37,4.8,1.82,1.82,0,0,0,5.93,5l-.14.08,0-.16c0-.09,0-.19-.07-.28s0-.2-.08-.3c-.13-.54-.27-1.07-.38-1.47S5.06,2.2,5,2.12A1.63,1.63,0,0,0,3.06,1H3a1.68,1.68,0,0,0-1,.76A1.66,1.66,0,0,0,1.8,3.06c.07.26.37,1.43.68,2.6s.6,2.35.67,2.61l0,.09-.08,0a1.7,1.7,0,0,0-.77,1.81c0,.12.06.25.09.36A5.91,5.91,0,0,0,4.44,13.85Z"/>
      </g>
    </g>
  </g>
</svg>
