<svg id="Layer_1" data-name="Layer 1" xmlns="http://www.w3.org/2000/svg" width="12.74" height="14.08" viewBox="0 0 12.74 14.08">
  <defs>
    <style>
      .cls-1 {
        fill: #fff;
        stroke: #000;
        stroke-linejoin: round;
        stroke-width: 0.25px;
      }

      .cls-2 {
        fill: none;
      }
    </style>
  </defs>
  <title>hand-pointer</title>
  <g>
    <g id="etemQk248">
      <path d="M7.74,13c-1.9.4-3.3.4-4.3-.3a4.57,4.57,0,0,1-1.9-3l-.1-.4A1.11,1.11,0,0,1,2.24,8h.1v.1c0,.1.3,1,.3,1.1h0c0-.1-1.8-6.9-1.8-7a1.06,1.06,0,0,1,.1-.8c.2-.3.4-.5.7-.5a1,1,0,0,1,1.3.7h0c.1.3.9,3.5,1.1,4.3v.2h.1A1.46,1.46,0,0,1,5,4.58H5a1.07,1.07,0,0,1,1.3.8.49.49,0,0,0,.1.3,1,1,0,0,1,.1.4h.1a1.21,1.21,0,0,1,.8-1.3h0a1.07,1.07,0,0,1,1.3.8.49.49,0,0,0,.1.3.44.44,0,0,0,.1.3h0v-.1a.66.66,0,0,1,.1-.6c.2-.3.4-.5.7-.5h0a1.06,1.06,0,0,1,.8.1c.3.1.4.4.5.7a4.5,4.5,0,0,0,.2.8,8.14,8.14,0,0,1,.2.9,4.59,4.59,0,0,1-.3,3.2,5,5,0,0,1-3.3,2.1C7.94,13,7.84,13,7.74,13Zm-6-3.3a4.2,4.2,0,0,0,1.8,2.9,5.78,5.78,0,0,0,4.4.2,5.09,5.09,0,0,0,3.2-2,4,4,0,0,0,.3-3,8.14,8.14,0,0,0-.2-.9l-.2-.8a1,1,0,0,0-.4-.5.74.74,0,0,0-.7-.3c-.2.1-.5.2-.6.4s-.1.2-.1.4v.3c0,.1-.1.1-.2.1s-.3-.1-.3-.2a.49.49,0,0,0-.1-.3.44.44,0,0,0-.1-.3.76.76,0,0,0-1-.6h0a.8.8,0,0,0-.7.9h0c0,.2-.1.3-.2.3a.19.19,0,0,1-.3-.1.49.49,0,0,0-.1-.3.44.44,0,0,0-.1-.3.89.89,0,0,0-1-.6h0a.8.8,0,0,0-.6,1h0c0,.2,0,.3-.2.4-.2-.1-.4-.2-.4-.3v-.2c-.2-.8-1-3.9-1.1-4.3a.83.83,0,0,0-1-.5h0a.92.92,0,0,0-.6.4.66.66,0,0,0-.1.6c.1.3,1.8,6.9,1.8,7s-.1.3-.2.3-.3,0-.3-.2a9.25,9.25,0,0,0-.3-1,1.08,1.08,0,0,0-.5,1.1Z"/>
      <path d="M4.45,3.91a.87.87,0,0,1,.29-.13,1.68,1.68,0,0,1,1.8.5,4.88,4.88,0,0,1,.7-.3,1.79,1.79,0,0,1,1.8.5,1.42,1.42,0,0,1,.6-.2h0a2,2,0,0,1,2.3,1.4,8.14,8.14,0,0,0,.2.9,8.14,8.14,0,0,1,.2.9,4.83,4.83,0,0,1-.2,3.4c-.6,1.4-1.51,2.13-3.51,2.63-.19.06-.51.13-.73.18-2.2.6-3.86.39-5.06-.41h0a5.87,5.87,0,0,1-2.1-3.4c0-.1-.1-.2-.1-.4a1.76,1.76,0,0,1,.8-2C1.24,7.08,1,6,.74,5c-.3-1.2-.6-2.4-.7-2.6A2.2,2.2,0,0,1,.24,1a1.78,1.78,0,0,1,1.2-.9h0a1.79,1.79,0,0,1,2.3,1.2h0a4.08,4.08,0,0,0,.2.7c.1.4.2.9.4,1.5"/>
    </g>
    <g>
      <g>
        <path class="cls-1" d="M7.86,12.79c-1.9.4-3.42.59-4.42-.11a4.57,4.57,0,0,1-1.9-3l-.1-.4A1.11,1.11,0,0,1,2.24,8h.1v.1c0,.1.3,1,.3,1.1h0c0-.1-1.8-6.9-1.8-7a1.06,1.06,0,0,1,.1-.8c.2-.3.4-.5.7-.5a1,1,0,0,1,1.3.7h0c.1.3.9,3.5,1.1,4.3L4.1,6l0,.07h0A1.46,1.46,0,0,1,5,4.58H5a1.07,1.07,0,0,1,1.31.79l.09.31a1.8,1.8,0,0,1,.14.4h.06a1.21,1.21,0,0,1,.8-1.3h0a1.07,1.07,0,0,1,1.3.8.86.86,0,0,0,.08.32.81.81,0,0,0,.12.28h0v-.1a.92.92,0,0,1,.1-.6c.2-.3.32-.48.68-.54h0a1.22,1.22,0,0,1,.81.15c.3.1.4.4.5.7a4.5,4.5,0,0,0,.2.8,8.14,8.14,0,0,1,.2.9,4.59,4.59,0,0,1-.3,3.2,5,5,0,0,1-3.3,2.1C7.94,13,8,12.79,7.86,12.79Z"/>
        <path class="cls-2" d="M1.74,9.68a4.2,4.2,0,0,0,1.8,2.9,5.78,5.78,0,0,0,4.4.2,5.09,5.09,0,0,0,3.2-2,4,4,0,0,0,.3-3,8.14,8.14,0,0,0-.2-.9l-.2-.8a1,1,0,0,0-.4-.5.74.74,0,0,0-.7-.3c-.2.1-.5.2-.6.4s-.1.2-.1.4v.3c0,.1-.1.1-.2.1s-.3-.1-.3-.2a.49.49,0,0,0-.1-.3.44.44,0,0,0-.1-.3.76.76,0,0,0-1-.6h0a.8.8,0,0,0-.7.9h0c0,.2-.1.3-.2.3a.19.19,0,0,1-.3-.1.49.49,0,0,0-.1-.3.44.44,0,0,0-.1-.3.89.89,0,0,0-1-.6h0a.8.8,0,0,0-.6,1h0c0,.2,0,.3-.2.4-.2-.1-.4-.2-.4-.3v-.2c-.2-.8-1-3.9-1.1-4.3a.83.83,0,0,0-1-.5h0a.92.92,0,0,0-.6.4.66.66,0,0,0-.1.6c.1.3,1.8,6.9,1.8,7s-.1.3-.2.3-.3,0-.3-.2a9.25,9.25,0,0,0-.3-1,1.08,1.08,0,0,0-.5,1.1Z"/>
      </g>
      <g>
        <path class="cls-2" d="M7.94,13.78c-2.2.5-3.9.4-5.1-.4h0A5.87,5.87,0,0,1,.74,10c0-.1-.1-.2-.1-.4a1.76,1.76,0,0,1,.8-2c-.1-.4-.4-1.5-.7-2.6a19.94,19.94,0,0,1-.6-2.6A2.2,2.2,0,0,1,.34,1a1.59,1.59,0,0,1,1.2-.9h0a2,2,0,0,1,2.3,1.2h0A4.08,4.08,0,0,0,4,2c.1.4.2.9.4,1.5a.37.37,0,0,0,.1.3v.1c.1,0,.2-.1.3-.1a2.17,2.17,0,0,1,1.8.5,4.88,4.88,0,0,1,.7-.3,1.79,1.79,0,0,1,1.8.5,1.42,1.42,0,0,0,.6-.2h0A2,2,0,0,1,12,5.68a8.14,8.14,0,0,0,.2.9,3.39,3.39,0,0,0,.3.8,4.83,4.83,0,0,1-.2,3.4,5.5,5.5,0,0,1-4,2.9C8.14,13.68,8,13.78,7.94,13.78Z"/>
        <path class="cls-2" d="M2.94,13.08c1.2.8,3,.9,5.2.3,2-.5,3.3-1.4,3.9-2.8a5.2,5.2,0,0,0,.2-3.3,8.14,8.14,0,0,0-.2-.9,8.14,8.14,0,0,1-.2-.9,1.64,1.64,0,0,0-2-1.2h0l-.6.3-.1.1L9,4.58a2,2,0,0,0-1.7-.3.86.86,0,0,0-.6.3h-.2a1.42,1.42,0,0,0-1.6-.5c-.2.1-.4.1-.5.2l-.1.1v-.2a.37.37,0,0,0-.1-.3c0-.1-.1-.2-.1-.3-.1-.5-.3-1-.4-1.5-.1-.3-.1-.6-.2-.7A1.6,1.6,0,0,0,1.64.28h0a1.88,1.88,0,0,0-1.1.8,1.91,1.91,0,0,0-.2,1.3c.1.3.4,1.4.7,2.6a19.94,19.94,0,0,1,.6,2.6v.1h-.1a1.69,1.69,0,0,0-.8,1.8c0,.1.1.2.1.4A6.33,6.33,0,0,0,2.94,13.08Z"/>
      </g>
    </g>
  </g>
</svg>
