<svg id="Layer_1" data-name="Layer 1" xmlns="http://www.w3.org/2000/svg" width="12.1" height="14.85" viewBox="0 0 12.1 14.85">
  <defs>
    <style>
      .cls-1 {
        fill: #fff;
        stroke: #000;
        stroke-miterlimit: 10;
        stroke-width: 0.25px;
      }

      .cls-2 {
        fill: none;
      }
    </style>
  </defs>
  <title>vectr-pointer2</title>
  <g id="etemQk248">
    <path d="M7.58,14.17a5.81,5.81,0,0,1-4.17-1.25A4.68,4.68,0,0,1,2.23,9.53V9.17A1.17,1.17,0,0,1,3.34,8h.12v.12c0,.11,0,1,0,1.15v0a0,0,0,0,0,0,0c0-.14-.15-7.16-.15-7.23a1.08,1.08,0,0,1,.29-.77A1.2,1.2,0,0,1,4.45,1a1.08,1.08,0,0,1,1.14,1v0c0,.34.07,3.62.09,4.41v.19s.08,0,.08,0a.13.13,0,0,1,0,0,1.12,1.12,0,0,1,1.1-1.1h0A1.12,1.12,0,0,1,8,6.45V6.8C8,7,8,7.11,8,7.15s.07,0,.07,0v0a1,1,0,0,1,1.09-1h0a1.14,1.14,0,0,1,1.13,1.07v.36c0,.16,0,.32,0,.36l0,0h0l0,0V7.85a.74.74,0,0,1,.23-.56,1.28,1.28,0,0,1,.85-.37h0a1.13,1.13,0,0,1,.78.31,1.07,1.07,0,0,1,.35.77c0,.08,0,.47,0,.87s0,.82,0,.91a4.22,4.22,0,0,1-1,3.05,5.11,5.11,0,0,1-3.75,1.33ZM2.48,9.53a4.31,4.31,0,0,0,1.1,3.21c.87.83,2.27,1.21,4.3,1.17a4.83,4.83,0,0,0,3.56-1.25,4,4,0,0,0,1-2.88c0-.09,0-.5,0-.91s0-.79,0-.87a.82.82,0,0,0-.27-.59.92.92,0,0,0-.63-.24,1,1,0,0,0-.67.29.51.51,0,0,0-.16.39v.06a.27.27,0,0,1-.28.27.27.27,0,0,1-.28-.27s0-.2,0-.36V7.2a.88.88,0,0,0-.88-.83h0a.8.8,0,0,0-.84.73v0a.29.29,0,0,1-.57,0s0-.19,0-.35V6.45a.87.87,0,0,0-.88-.83h0A.86.86,0,0,0,6,6.47v0a.28.28,0,0,1-.28.31.28.28,0,0,1-.29-.27V6.34c0-.79-.09-4.07-.09-4.41a.84.84,0,0,0-.87-.73h0a.92.92,0,0,0-.62.28.8.8,0,0,0-.22.58c0,.3.15,7.1.15,7.24a.26.26,0,0,1-.26.28.25.25,0,0,1-.25-.28c0-.11,0-.73,0-1a.89.89,0,0,0-.74.87Z" transform="translate(-1.38 -0.1)"/>
    <path d="M7.55,14.9c-2.24,0-3.84-.52-4.87-1.59h0A6.07,6.07,0,0,1,1.39,9.5c0-.12,0-.26,0-.39A1.93,1.93,0,0,1,2.63,7.32c0-.38,0-1.49-.06-2.6S2.51,2.3,2.51,2A1.83,1.83,0,0,1,3.05.69,1.93,1.93,0,0,1,4.4.1h0A1.88,1.88,0,0,1,6.37,1.82v0c0,.09,0,.36,0,.75s0,1,0,1.52v.44a1.82,1.82,0,0,1,.37,0,2,2,0,0,1,1.68.87,2.34,2.34,0,0,1,.7-.12,1.94,1.94,0,0,1,1.64.91,2.13,2.13,0,0,1,.61-.12h0A1.92,1.92,0,0,1,13.4,7.92c0,.08,0,.49,0,.89s0,.79,0,.88a5.21,5.21,0,0,1-1,3.31,5.63,5.63,0,0,1-4.59,1.89Z" transform="translate(-1.38 -0.1)"/>
  </g>
  <g>
    <g>
      <path class="cls-1" d="M7.58,14.17a5.81,5.81,0,0,1-4.17-1.25A4.68,4.68,0,0,1,2.23,9.53V9.17A1.17,1.17,0,0,1,3.34,8h.12v.12c0,.11,0,1,0,1.15v0a0,0,0,0,0,0,0c0-.14-.15-7.16-.15-7.23a1.08,1.08,0,0,1,.29-.77A1.2,1.2,0,0,1,4.45,1a1.08,1.08,0,0,1,1.14,1v0c0,.34.07,3.62.09,4.41v.19s.08,0,.08,0a.13.13,0,0,1,0,0,1.12,1.12,0,0,1,1.1-1.1h0A1.12,1.12,0,0,1,8,6.45V6.8C8,7,8,7.11,8,7.15s.07,0,.07,0v0a1,1,0,0,1,1.09-1h0a1.14,1.14,0,0,1,1.13,1.07v.36c0,.16,0,.32,0,.36l0,0h0l0,0V7.85a.74.74,0,0,1,.23-.56,1.28,1.28,0,0,1,.85-.37h0a1.13,1.13,0,0,1,.78.31,1.07,1.07,0,0,1,.35.77c0,.08,0,.47,0,.87s0,.82,0,.91a4.22,4.22,0,0,1-1,3.05,5.11,5.11,0,0,1-3.75,1.33Z" transform="translate(-1.38 -0.1)"/>
      <path class="cls-2" d="M2.48,9.53a4.31,4.31,0,0,0,1.1,3.21c.87.83,2.27,1.21,4.3,1.17a4.83,4.83,0,0,0,3.56-1.25,4,4,0,0,0,1-2.88c0-.09,0-.5,0-.91s0-.79,0-.87a.82.82,0,0,0-.27-.59.92.92,0,0,0-.63-.24,1,1,0,0,0-.67.29.51.51,0,0,0-.16.39v.06a.27.27,0,0,1-.28.27.27.27,0,0,1-.28-.27s0-.2,0-.36V7.2a.88.88,0,0,0-.88-.83h0a.8.8,0,0,0-.84.73v0a.29.29,0,0,1-.57,0s0-.19,0-.35V6.45a.87.87,0,0,0-.88-.83h0A.86.86,0,0,0,6,6.47v0a.28.28,0,0,1-.28.31.28.28,0,0,1-.29-.27V6.34c0-.79-.09-4.07-.09-4.41a.84.84,0,0,0-.87-.73h0a.92.92,0,0,0-.62.28.8.8,0,0,0-.22.58c0,.3.15,7.1.15,7.24a.26.26,0,0,1-.26.28.25.25,0,0,1-.25-.28c0-.11,0-.73,0-1a.89.89,0,0,0-.74.87Z" transform="translate(-1.38 -0.1)"/>
    </g>
    <g>
      <path class="cls-2" d="M7.58,15c-2.24,0-3.84-.53-4.87-1.6h0a6,6,0,0,1-1.29-3.8c0-.12,0-.26,0-.39A1.93,1.93,0,0,1,2.66,7.38c0-.39,0-1.49-.06-2.6s-.06-2.42-.06-2.69A1.87,1.87,0,0,1,3.08.74,1.92,1.92,0,0,1,4.43.16h0A1.88,1.88,0,0,1,6.4,1.88v0c0,.08,0,.36,0,.74s0,1,0,1.53v.44l.37,0a2,2,0,0,1,1.68.88,2.4,2.4,0,0,1,.71-.12,1.94,1.94,0,0,1,1.64.91,2.07,2.07,0,0,1,.61-.12h0A1.92,1.92,0,0,1,13.43,8c0,.08,0,.48,0,.89s0,.79,0,.88a5.18,5.18,0,0,1-1,3.3A5.64,5.64,0,0,1,7.9,15Z" transform="translate(-1.38 -0.1)"/>
      <path class="cls-2" d="M2.89,13.19c1,1.07,2.67,1.56,5,1.51a5.39,5.39,0,0,0,4.4-1.8,4.89,4.89,0,0,0,.93-3.14c0-.09,0-.49,0-.89s0-.8,0-.88A1.67,1.67,0,0,0,11.5,6.37h0a2,2,0,0,0-.62.14l-.11,0-.05-.09a1.69,1.69,0,0,0-1.52-.87,1.79,1.79,0,0,0-.67.14l-.09,0-.06-.09a1.72,1.72,0,0,0-1.51-.84,1.82,1.82,0,0,0-.46.08L6.21,5V4.78c0-.09,0-.19,0-.29V4.18c0-.55,0-1.1,0-1.52s0-.67,0-.75A1.63,1.63,0,0,0,4.47.41h0A1.7,1.7,0,0,0,3.25.92a1.61,1.61,0,0,0-.46,1.17c0,.27,0,1.48.06,2.69s0,2.42.06,2.69v.09l-.09,0A1.68,1.68,0,0,0,1.66,9.17c0,.12,0,.25,0,.37A5.83,5.83,0,0,0,2.89,13.19Z" transform="translate(-1.38 -0.1)"/>
    </g>
  </g>
</svg>
